<svg xmlns="http://www.w3.org/2000/svg" width="1584.666" height="472.074" viewBox="0 0 1584.666 472.074">
  <g id="Grupo_23" data-name="Grupo 23" transform="translate(0.381 0.5)">
    <path id="Trazado_10" data-name="Trazado 10" d="M1353.884,347.591c-115.6-119.874-342.959,184.916-534.374,22.162C667.117,240.179,655.37-52.369,382.418-52.369S230.591,602.485-215.665,77.178" transform="translate(215.665 52.369)" fill="none" stroke="#1b1f27" stroke-miterlimit="10" stroke-width="1"/>
    <path id="Trazado_11" data-name="Trazado 11" d="M1346.37,350.6c-114.158-155.343-354.13,190.838-545.6,28.15C652.223,252.526,640.56-20.842,372.086-20.842S188.4,564.821-219.393,111.339" transform="translate(225.556 40.941)" fill="none" stroke="#1b1f27" stroke-miterlimit="10" stroke-width="1"/>
    <path id="Trazado_12" data-name="Trazado 12" d="M1338.856,353.617c-112.713-190.811-365.3,196.76-556.828,34.137C637.327,264.873,625.748,10.685,361.754,10.685S146.209,527.156-223.121,145.5" transform="translate(235.446 29.513)" fill="none" stroke="#1b1f27" stroke-miterlimit="10" stroke-width="1"/>
    <path id="Trazado_13" data-name="Trazado 13" d="M1331.341,356.63c-111.268-226.279-376.472,202.682-568.055,40.126C622.43,277.221,610.936,42.212,351.42,42.212s-247.4,447.279-578.27,137.449" transform="translate(245.338 18.084)" fill="none" stroke="#1b1f27" stroke-miterlimit="10" stroke-width="1"/>
    <path id="Trazado_14" data-name="Trazado 14" d="M1323.828,359.642C1214.005,97.9,936.185,568.246,744.545,405.756,607.535,289.567,596.126,73.738,341.089,73.738S61.827,451.826-230.578,213.822" transform="translate(255.228 6.657)" fill="none" stroke="#1b1f27" stroke-miterlimit="10" stroke-width="1"/>
    <path id="Trazado_15" data-name="Trazado 15" d="M1316.314,362.656C1207.937,65.44,917.5,577.181,725.8,414.757,592.639,301.915,581.315,105.265,330.756,105.265S19.635,414.161-234.306,247.983" transform="translate(265.119 -4.772)" fill="none" stroke="#1b1f27" stroke-miterlimit="10" stroke-width="1"/>
    <path id="Trazado_16" data-name="Trazado 16" d="M1308.8,365.669C1201.868,32.985,898.815,586.116,707.064,423.758c-129.32-109.5-140.56-286.966-386.639-286.966S-22.556,376.5-238.034,282.144" transform="translate(275.009 -16.2)" fill="none" stroke="#1b1f27" stroke-miterlimit="10" stroke-width="1"/>
  </g>
</svg>
