<svg xmlns="http://www.w3.org/2000/svg" width="1584.666" height="472.073" viewBox="0 0 1584.666 472.073">
  <g id="Grupo_420" data-name="Grupo 420" transform="translate(76.931 -1625.5)">
    <path id="Trazado_10" data-name="Trazado 10" d="M-215.665,347.591c115.6-119.874,342.959,184.916,534.374,22.162C471.1,240.179,482.848-52.369,755.8-52.369S907.627,602.485,1353.884,77.178" transform="translate(153.47 1678.369)" fill="none" stroke="#d8d8d8" stroke-miterlimit="10" stroke-width="1"/>
    <path id="Trazado_11" data-name="Trazado 11" d="M-219.393,350.6c114.158-155.343,354.13,190.838,545.6,28.15,148.546-126.228,160.209-399.6,428.683-399.6S938.576,564.821,1346.37,111.339" transform="translate(154.822 1666.941)" fill="none" stroke="#d8d8d8" stroke-miterlimit="10" stroke-width="1"/>
    <path id="Trazado_12" data-name="Trazado 12" d="M-223.121,353.617c112.713-190.811,365.3,196.76,556.828,34.137C478.408,264.873,489.987,10.685,753.981,10.685S969.525,527.156,1338.856,145.5" transform="translate(156.173 1655.513)" fill="none" stroke="#d8d8d8" stroke-miterlimit="10" stroke-width="1"/>
    <path id="Trazado_13" data-name="Trazado 13" d="M-226.85,356.63c111.268-226.279,376.472,202.682,568.055,40.126C482.061,277.221,493.555,42.212,753.071,42.212s247.4,447.279,578.27,137.449" transform="translate(157.525 1644.085)" fill="none" stroke="#d8d8d8" stroke-miterlimit="10" stroke-width="1"/>
    <path id="Trazado_14" data-name="Trazado 14" d="M-230.578,359.642C-120.755,97.9,157.065,568.246,348.7,405.756,485.715,289.567,497.124,73.738,752.161,73.738s279.262,378.088,571.667,140.084" transform="translate(158.876 1632.657)" fill="none" stroke="#d8d8d8" stroke-miterlimit="10" stroke-width="1"/>
    <path id="Trazado_15" data-name="Trazado 15" d="M-234.306,362.656c108.377-297.215,398.813,214.526,590.51,52.1C489.368,301.915,500.693,105.265,751.251,105.265s311.121,308.9,565.062,142.718" transform="translate(160.227 1621.229)" fill="none" stroke="#d8d8d8" stroke-miterlimit="10" stroke-width="1"/>
    <path id="Trazado_16" data-name="Trazado 16" d="M-238.034,365.669C-131.1,32.985,171.951,586.116,363.7,423.758c129.32-109.5,140.56-286.966,386.639-286.966S1093.322,376.5,1308.8,282.144" transform="translate(161.579 1609.8)" fill="none" stroke="#d8d8d8" stroke-miterlimit="10" stroke-width="1"/>
  </g>
</svg>
