<svg xmlns="http://www.w3.org/2000/svg" viewBox="0 0 170 134.2"><g data-name="Layer 2"><g data-name="Layer 1"><path d="M45.4 57.7a7 7 0 102.1 4.9 6.7 6.7 0 00-2.1-4.9z"/><path d="M7.5 126.7v-69a49.1 49.1 0 014-19.9 43.9 43.9 0 0110.8-16.9 43.6 43.6 0 0132-13.2h58.3A48.2 48.2 0 01148 22.3a48.2 48.2 0 0114.6 35.4v69M55.9 7.7a43.1 43.1 0 0130.3 13.2 43.5 43.5 0 0113.3 32 43.4 43.4 0 01-13.3 32 43.4 43.4 0 01-31.9 13.3h-.8m-42-60.4a49.2 49.2 0 0110.7-15.5A48 48 0 0155.9 7.7m64.6 118.9h-67" fill="none" stroke="#000" stroke-linecap="square" stroke-miterlimit="3" stroke-width="15"/></g></g></svg>
