<svg xmlns="http://www.w3.org/2000/svg" width="50" height="50" viewBox="0 0 50 50">
  <g id="Grupo_24431" data-name="Grupo 24431" transform="translate(-323 -7544.725)">
    <g id="Grupo_23485" data-name="Grupo 23485" transform="translate(0 -530.275)">
      <g id="Grupo_24430" data-name="Grupo 24430">
        <circle id="Elipse_77" data-name="Elipse 77" cx="25" cy="25" r="25" transform="translate(323 8075)" fill="#316195"/>
      </g>
      <path id="Icon_simple-glassdoor" data-name="Icon simple-glassdoor" d="M15.847,16.056H5.144a2.674,2.674,0,0,0,2.674,2.675h8.028a2.676,2.676,0,0,0,2.675-2.675V5.067a.1.1,0,0,0-.1-.1H15.943a.1.1,0,0,0-.1.1V16.056ZM15.847,0a2.676,2.676,0,0,1,2.675,2.677H7.82V13.664a.1.1,0,0,1-.1.1H5.241a.1.1,0,0,1-.1-.1V2.675A2.676,2.676,0,0,1,7.818,0h8.029" transform="translate(336.167 8091)" fill="#fff"/>
    </g>
  </g>
</svg>
