<svg xmlns="http://www.w3.org/2000/svg" width="50" height="50" viewBox="0 0 50 50">
  <g id="Grupo_24430" data-name="Grupo 24430" transform="translate(-82 -8075)">
    <circle id="Elipse_72" data-name="Elipse 72" cx="25" cy="25" r="25" transform="translate(82 8075)" fill="#316195"/>
    <path id="Trazado_32810" data-name="Trazado 32810" d="M18.3-13H1.4A1.414,1.414,0,0,0,0-11.579V5.292A1.414,1.414,0,0,0,1.4,6.713H18.3a1.418,1.418,0,0,0,1.408-1.421v-16.87A1.418,1.418,0,0,0,18.3-13ZM5.958,3.9H3.036V-5.511H5.962V3.9ZM4.5-6.8A1.7,1.7,0,0,1,2.8-8.49,1.7,1.7,0,0,1,4.5-10.184,1.7,1.7,0,0,1,6.191-8.49,1.692,1.692,0,0,1,4.5-6.8ZM16.91,3.9H13.988V-.679c0-1.091-.022-2.495-1.518-2.495-1.522,0-1.756,1.188-1.756,2.416V3.9H7.793V-5.511h2.8v1.285h.04A3.077,3.077,0,0,1,13.4-5.744c2.957,0,3.507,1.949,3.507,4.484Z" transform="translate(97 8103)" fill="#fff"/>
  </g>
</svg>
