<svg xmlns="http://www.w3.org/2000/svg" width="41.5" height="41.5" viewBox="0 0 41.5 41.5">
  <path id="Subtraction_4" data-name="Subtraction 4" d="M4119.75,7493.5a20.683,20.683,0,1,1,8.077-1.631A20.625,20.625,0,0,1,4119.75,7493.5Zm-6.43-29.05a1.756,1.756,0,0,0-1.752,1.755v12.857a1.755,1.755,0,0,0,1.752,1.753h12.858a1.756,1.756,0,0,0,1.755-1.753V7466.2a1.757,1.757,0,0,0-1.755-1.755Zm6.43,12.858a40.02,40.02,0,0,1-5.194-.276,1.641,1.641,0,0,1-1.177-1.166,18.913,18.913,0,0,1,0-6.443,1.676,1.676,0,0,1,1.177-1.185,48.274,48.274,0,0,1,10.389,0,1.669,1.669,0,0,1,1.175,1.185,18.76,18.76,0,0,1,0,6.439,1.633,1.633,0,0,1-1.175,1.166A39.561,39.561,0,0,1,4119.75,7477.308Zm-1.36-6.644h0v3.953l3.478-1.976-3.478-1.977Z" transform="translate(-4099 -7452)" fill="#316195"/>
</svg>
