<svg xmlns="http://www.w3.org/2000/svg" width="50" height="50" viewBox="0 0 50 50">
  <g id="Grupo_24430" data-name="Grupo 24430" transform="translate(-203 -8075)">
    <circle id="Elipse_75" data-name="Elipse 75" cx="25" cy="25" r="25" transform="translate(203 8075)" fill="#316195"/>
    <path id="Trazado_32809" data-name="Trazado 32809" d="M18.366-8.354a9.018,9.018,0,0,0,2.1-2.169,8.41,8.41,0,0,1-2.416.649A4.184,4.184,0,0,0,19.9-12.186a8.259,8.259,0,0,1-2.663,1.013A4.185,4.185,0,0,0,14.17-12.5a4.193,4.193,0,0,0-4.2,4.2,4.736,4.736,0,0,0,.1.961,11.925,11.925,0,0,1-8.65-4.39A4.163,4.163,0,0,0,.857-9.614,4.192,4.192,0,0,0,2.727-6.12a4.225,4.225,0,0,1-1.9-.532V-6.6A4.2,4.2,0,0,0,4.2-2.483a4.436,4.436,0,0,1-1.1.143A5.287,5.287,0,0,1,2.3-2.405,4.2,4.2,0,0,0,6.221.5,8.4,8.4,0,0,1,1.013,2.3,8.682,8.682,0,0,1,0,2.244,11.855,11.855,0,0,0,6.442,4.128,11.855,11.855,0,0,0,18.379-7.809C18.379-7.99,18.379-8.172,18.366-8.354Z" transform="translate(218 8104.498)" fill="#fff"/>
  </g>
</svg>
