<svg xmlns="http://www.w3.org/2000/svg" width="50" height="50" viewBox="0 0 50 50">
  <g id="Grupo_24430" data-name="Grupo 24430" transform="translate(-263 -8075)">
    <circle id="Elipse_74" data-name="Elipse 74" cx="25" cy="25" r="25" transform="translate(263 8075)" fill="#316195"/>
    <path id="Icon_awesome-youtube-square" data-name="Icon awesome-youtube-square" d="M8.221,9.736l4.19,2.381L8.221,14.5Zm11.5-5.374V19.854A2.113,2.113,0,0,1,17.6,21.966H2.112A2.113,2.113,0,0,1,0,19.854V4.362A2.113,2.113,0,0,1,2.112,2.25H17.6A2.113,2.113,0,0,1,19.716,4.362Zm-1.848,7.759a21.147,21.147,0,0,0-.334-3.882,2.009,2.009,0,0,0-1.417-1.426,47.259,47.259,0,0,0-6.258-.339A47.259,47.259,0,0,0,3.6,6.814,2.009,2.009,0,0,0,2.183,8.24a21.121,21.121,0,0,0-.334,3.882A21.147,21.147,0,0,0,2.183,16a1.98,1.98,0,0,0,1.417,1.4,47.875,47.875,0,0,0,6.258.334,47.259,47.259,0,0,0,6.258-.339A1.98,1.98,0,0,0,17.533,16a21.082,21.082,0,0,0,.334-3.877Z" transform="translate(278.142 8087.75)" fill="#fff"/>
  </g>
</svg>
