<svg xmlns="http://www.w3.org/2000/svg" width="1584.422" height="195.957" viewBox="0 0 1584.422 195.957">
  <g id="Grupo_417" data-name="Grupo 417" transform="translate(71.85 -5407.259)">
    <path id="Trazado_10" data-name="Trazado 10" d="M-215.665,113.156c115.6-49.61,342.959,76.528,534.374,9.172C471.1,68.7,482.848-52.369,755.8-52.369S907.627,218.645,1353.884,1.244" transform="translate(158.47 5460.128)" fill="none" stroke="#d8d8d8" stroke-miterlimit="10" stroke-width="1"/>
    <path id="Trazado_11" data-name="Trazado 11" d="M-219.393,132.882c114.158-64.289,354.13,78.979,545.6,11.65C474.754,92.292,486.417-20.842,754.891-20.842s183.685,242.379,591.479,54.7" transform="translate(159.822 5436.919)" fill="none" stroke="#d8d8d8" stroke-miterlimit="10" stroke-width="1"/>
    <path id="Trazado_12" data-name="Trazado 12" d="M-223.121,152.609c112.713-78.968,365.3,81.43,556.828,14.128,144.7-50.855,156.279-156.052,420.274-156.052s215.544,213.744,584.875,55.794" transform="translate(161.173 5413.71)" fill="none" stroke="#d8d8d8" stroke-miterlimit="10" stroke-width="1"/>
    <path id="Trazado_13" data-name="Trazado 13" d="M-226.85,172.335c111.268-93.646,376.472,83.881,568.055,16.606,140.856-49.47,152.35-146.729,411.866-146.729s247.4,185.108,578.27,56.884" transform="translate(162.525 5390.501)" fill="none" stroke="#d8d8d8" stroke-miterlimit="10" stroke-width="1"/>
    <path id="Trazado_14" data-name="Trazado 14" d="M-230.578,192.061C-120.755,83.736,157.065,278.392,348.7,211.145,485.715,163.06,497.124,73.738,752.161,73.738s279.262,156.473,571.667,57.974" transform="translate(163.876 5367.293)" fill="none" stroke="#d8d8d8" stroke-miterlimit="10" stroke-width="1"/>
    <path id="Trazado_15" data-name="Trazado 15" d="M-234.306,211.787c108.377-123,398.813,88.782,590.51,21.562,133.164-46.7,144.489-128.084,395.048-128.084S1062.373,233.1,1316.314,164.33" transform="translate(165.227 5344.084)" fill="none" stroke="#d8d8d8" stroke-miterlimit="10" stroke-width="1"/>
    <path id="Trazado_16" data-name="Trazado 16" d="M-238.034,231.513C-131.1,93.831,171.951,322.746,363.7,255.554c129.32-45.315,140.56-118.762,386.639-118.762s342.981,99.2,558.459,60.155" transform="translate(166.579 5320.875)" fill="none" stroke="#d8d8d8" stroke-miterlimit="10" stroke-width="1"/>
  </g>
</svg>
