<svg xmlns="http://www.w3.org/2000/svg" width="50" height="50" viewBox="0 0 50 50">
  <g id="Grupo_24430" data-name="Grupo 24430" transform="translate(-142 -8075)">
    <circle id="Elipse_73" data-name="Elipse 73" cx="25" cy="25" r="25" transform="translate(142 8075)" fill="#316195"/>
    <path id="Trazado_32808" data-name="Trazado 32808" d="M19.061-11.949A1.054,1.054,0,0,0,18.006-13H1.051A1.053,1.053,0,0,0,0-11.949V5.01A1.053,1.053,0,0,0,1.051,6.061h9.122V-1.321H7.688V-4.2h2.485V-6.32a3.468,3.468,0,0,1,3.7-3.8,20.479,20.479,0,0,1,2.221.115v2.574H14.572c-1.2,0-1.425.566-1.425,1.4V-4.2H16l-.37,2.876H13.151V6.057H18.01a1.05,1.05,0,0,0,1.051-1.051Z" transform="translate(157 8103)" fill="#fff"/>
  </g>
</svg>
