<svg xmlns="http://www.w3.org/2000/svg" width="41.5" height="41.5" viewBox="0 0 41.5 41.5">
  <path id="Subtraction_3" data-name="Subtraction 3" d="M4139.75,8911.5a20.687,20.687,0,1,1,8.077-1.631A20.623,20.623,0,0,1,4139.75,8911.5Zm-8.3-15.154h0a9.856,9.856,0,0,0,5.347,1.563,9.492,9.492,0,0,0,7.354-3.229,10.247,10.247,0,0,0,2.553-6.68c0-.148,0-.3-.011-.451a7.449,7.449,0,0,0,1.747-1.8,7.061,7.061,0,0,1-2.006.539,3.472,3.472,0,0,0,1.532-1.919,6.921,6.921,0,0,1-2.209.841,3.486,3.486,0,0,0-6.027,2.382,3.824,3.824,0,0,0,.087.8,9.931,9.931,0,0,1-7.181-3.646,3.445,3.445,0,0,0-.474,1.758,3.483,3.483,0,0,0,1.552,2.9,3.5,3.5,0,0,1-1.572-.442V8889a3.5,3.5,0,0,0,2.791,3.42,3.741,3.741,0,0,1-.917.116,4.2,4.2,0,0,1-.658-.054,3.49,3.49,0,0,0,3.256,2.416,6.95,6.95,0,0,1-4.323,1.487A7.429,7.429,0,0,1,4131.451,8896.346Z" transform="translate(-4118.999 -8870)" fill="#316195"/>
</svg>
