<svg xmlns="http://www.w3.org/2000/svg" width="41.5" height="41.5" viewBox="0 0 41.5 41.5">
  <path id="Subtraction_5" data-name="Subtraction 5" d="M4119.75,7493.5a20.683,20.683,0,1,1,8.077-1.631A20.625,20.625,0,0,1,4119.75,7493.5Zm-5.552-14.893a2.222,2.222,0,0,0,2.219,2.219h6.663a2.222,2.222,0,0,0,2.221-2.219v-9.121a.08.08,0,0,0-.081-.081h-2.06a.08.08,0,0,0-.079.081v9.121Zm2.219-13.326a2.221,2.221,0,0,0-2.219,2.219v9.121a.08.08,0,0,0,.081.081h2.059a.08.08,0,0,0,.081-.081V7467.5h8.882a2.223,2.223,0,0,0-2.219-2.221Z" transform="translate(-4099 -7452)" fill="#316195"/>
</svg>
