<svg xmlns="http://www.w3.org/2000/svg" width="41.5" height="41.5" viewBox="0 0 41.5 41.5">
  <path id="Subtraction_1" data-name="Subtraction 1" d="M4139.75,8911.5a20.687,20.687,0,1,1,8.077-1.631A20.623,20.623,0,0,1,4139.75,8911.5Zm-7.134-29.05a1.173,1.173,0,0,0-1.166,1.179v14a1.174,1.174,0,0,0,1.166,1.181h14.027a1.176,1.176,0,0,0,1.17-1.181v-14a1.175,1.175,0,0,0-1.17-1.179Zm7.729,14.026h-2.426v-7.81h2.326v1.066h.034a2.566,2.566,0,0,1,2.3-1.259c2.559,0,2.912,1.789,2.912,3.722v4.279h-2.426v-3.8c0-.874,0-2.071-1.259-2.071-1.283,0-1.456,1.014-1.456,2.006v3.865Zm-3.945,0h-2.429v-7.81h2.429v7.809Zm-1.216-8.877a1.406,1.406,0,1,1,1.407-1.4A1.407,1.407,0,0,1,4135.183,8887.6Z" transform="translate(-4118.999 -8870)" fill="#316195"/>
</svg>
