<svg xmlns="http://www.w3.org/2000/svg" width="41.5" height="41.5" viewBox="0 0 41.5 41.5">
  <path id="Subtraction_2" data-name="Subtraction 2" d="M4139.75,8911.5a20.687,20.687,0,1,1,8.077-1.631A20.623,20.623,0,0,1,4139.75,8911.5Zm-7.427-29.05a.874.874,0,0,0-.873.872V8897.4a.874.874,0,0,0,.873.872h7.57v-6.128h-2.062v-2.387h2.062V8888a3.205,3.205,0,0,1,.854-2.347,3.075,3.075,0,0,1,2.219-.812,17.373,17.373,0,0,1,1.845.1v2.136h-1.266c-.982,0-1.183.465-1.183,1.163v1.525h2.366l-.307,2.387h-2.055v6.123h4.032a.873.873,0,0,0,.872-.872v-14.072a.875.875,0,0,0-.876-.872Z" transform="translate(-4118.999 -8870)" fill="#316195"/>
</svg>
