<svg xmlns="http://www.w3.org/2000/svg" viewBox="0 0 170 134.2">
  <defs>
    <style>
      .cls-1 {
        fill-opacity: 1;
      }

      .cls-2 {
        fill: none;
        stroke: #000;
        stroke-linecap: square;
        stroke-miterlimit: 3;
        stroke-width: 15px;
      }
    </style>
  </defs>
  <title>logo</title>
  <g id="Layer_2" data-name="Layer 2">
    <g id="Layer_1-2" data-name="Layer 1">
      <path id="a" class="cls-1" d="M45.4,57.7a7,7,0,1,0,2.1,4.9A6.7,6.7,0,0,0,45.4,57.7Z"/>
      <path id="b" class="cls-2" d="M7.5,126.7v-69a49.1,49.1,0,0,1,4-19.9A43.9,43.9,0,0,1,22.3,20.9a43.6,43.6,0,0,1,32-13.2h58.3a48.2,48.2,0,0,1,35.4,14.6,48.2,48.2,0,0,1,14.6,35.4v69M55.9,7.7A43.1,43.1,0,0,1,86.2,20.9a43.5,43.5,0,0,1,13.3,32A43.4,43.4,0,0,1,86.2,84.9,43.4,43.4,0,0,1,54.3,98.2h-.8M11.5,37.8A49.2,49.2,0,0,1,22.2,22.3,48,48,0,0,1,55.9,7.7m64.6,118.9h-67"/>
    </g>
  </g>
</svg>
