<svg xmlns="http://www.w3.org/2000/svg" width="12.448" height="12.445" viewBox="0 0 12.448 12.445">
  <path id="Icon_awesome-instagram" data-name="Icon awesome-instagram" d="M6.22,5.27A3.191,3.191,0,1,0,9.411,8.46,3.186,3.186,0,0,0,6.22,5.27Zm0,5.265A2.074,2.074,0,1,1,8.295,8.46,2.078,2.078,0,0,1,6.22,10.535Zm4.066-5.4a.744.744,0,1,1-.744-.744A.743.743,0,0,1,10.286,5.139Zm2.113.755a3.683,3.683,0,0,0-1.005-2.608A3.707,3.707,0,0,0,8.786,2.281c-1.028-.058-4.107-.058-5.135,0a3.7,3.7,0,0,0-2.608,1A3.7,3.7,0,0,0,.038,5.892C-.02,6.919-.02,10,.038,11.026a3.683,3.683,0,0,0,1.005,2.608,3.712,3.712,0,0,0,2.608,1.005c1.028.058,4.107.058,5.135,0a3.683,3.683,0,0,0,2.608-1.005A3.707,3.707,0,0,0,12.4,11.026c.058-1.028.058-4.1,0-5.132Zm-1.327,6.234a2.1,2.1,0,0,1-1.183,1.183,13.716,13.716,0,0,1-3.668.25,13.823,13.823,0,0,1-3.668-.25,2.1,2.1,0,0,1-1.183-1.183,13.716,13.716,0,0,1-.25-3.668,13.823,13.823,0,0,1,.25-3.668A2.1,2.1,0,0,1,2.552,3.609a13.716,13.716,0,0,1,3.668-.25,13.823,13.823,0,0,1,3.668.25,2.1,2.1,0,0,1,1.183,1.183,13.716,13.716,0,0,1,.25,3.668A13.708,13.708,0,0,1,11.072,12.129Z" transform="translate(0.005 -2.238)" fill="#fff"/>
</svg>
