<svg xmlns="http://www.w3.org/2000/svg" width="14" height="14" viewBox="0 0 14 14">
  <path id="Trazado_8049" data-name="Trazado 8049" d="M13-13H1a1,1,0,0,0-1,1.009V-.009A1,1,0,0,0,1,1H13A1.007,1.007,0,0,0,14-.009V-11.991A1.007,1.007,0,0,0,13-13ZM4.231-1H2.156V-7.681H4.234V-1ZM3.194-8.594a1.2,1.2,0,0,1-1.2-1.2,1.2,1.2,0,0,1,1.2-1.2A1.206,1.206,0,0,1,4.4-9.8,1.2,1.2,0,0,1,3.194-8.594ZM12.009-1H9.934V-4.25c0-.775-.016-1.772-1.078-1.772-1.081,0-1.247.844-1.247,1.716V-1H5.534V-7.681H7.525v.913h.028A2.185,2.185,0,0,1,9.519-7.847c2.1,0,2.491,1.384,2.491,3.184Z" transform="translate(0 13)" fill="#fff"/>
</svg>
