<svg xmlns="http://www.w3.org/2000/svg" width="10.906" height="10.906" viewBox="0 0 10.906 10.906">
  <path id="call_FILL0_wght600_GRAD0_opsz48" d="M15.36,16.156a8.067,8.067,0,0,1-3.616-.889,12.3,12.3,0,0,1-3.229-2.318A12.063,12.063,0,0,1,6.189,9.719,8.084,8.084,0,0,1,5.3,6.11.832.832,0,0,1,5.548,5.5a.815.815,0,0,1,.6-.248H8.187a.845.845,0,0,1,.576.2.958.958,0,0,1,.3.547L9.455,7.7a1.21,1.21,0,0,1-.007.547.826.826,0,0,1-.241.4l-1.5,1.414A11.612,11.612,0,0,0,9.4,12.226a9.1,9.1,0,0,0,2.07,1.538L12.9,12.307a1.06,1.06,0,0,1,.459-.3A.992.992,0,0,1,13.9,12l1.56.364a.992.992,0,0,1,.547.328.9.9,0,0,1,.2.59V15.3a.832.832,0,0,1-.248.612.815.815,0,0,1-.6.248ZM7.137,9.041,8.3,7.9,7.983,6.416H6.466a4.273,4.273,0,0,0,.146,1.159,9.581,9.581,0,0,0,.525,1.465Zm5.395,5.307a6.638,6.638,0,0,0,1.217.43,7.355,7.355,0,0,0,1.29.211V13.458l-1.371-.306ZM7.137,9.041ZM12.532,14.348Z" transform="translate(-5.3 -5.25)" fill="#ffffff"/>
</svg>
