<svg xmlns="http://www.w3.org/2000/svg" width="11.752" height="14.69" viewBox="0 0 11.752 14.69">
  <path id="location_on_FILL0_wght400_GRAD0_opsz48" d="M13.876,11.162a1.285,1.285,0,1,0-.909-.376A1.239,1.239,0,0,0,13.876,11.162Zm0,6.078a21.507,21.507,0,0,0,3.608-4.031,6.115,6.115,0,0,0,1.166-3.186,4.78,4.78,0,0,0-1.386-3.544A4.624,4.624,0,0,0,13.876,5.1a4.624,4.624,0,0,0-3.388,1.377A4.78,4.78,0,0,0,9.1,10.023,6.026,6.026,0,0,0,10.3,13.209,23.354,23.354,0,0,0,13.876,17.24Zm0,1.451A24.418,24.418,0,0,1,9.46,14.017,7.268,7.268,0,0,1,8,10.023,5.681,5.681,0,0,1,9.772,5.634a5.97,5.97,0,0,1,8.208,0,5.681,5.681,0,0,1,1.772,4.389,7.268,7.268,0,0,1-1.46,3.994A24.418,24.418,0,0,1,13.876,18.69ZM13.876,10.023Z" transform="translate(-8 -4)" fill="#ffffff"/>
</svg>
