<svg xmlns="http://www.w3.org/2000/svg" width="19.025" height="21.11" viewBox="0 0 19.025 21.11">
  <path id="share_FILL0_wght400_GRAD0_opsz48" d="M22.017,25.11A3.018,3.018,0,0,1,19.009,22.1a2.843,2.843,0,0,1,.04-.435,2.363,2.363,0,0,1,.119-.462l-8-4.644a3.015,3.015,0,0,1-.976.726,2.729,2.729,0,0,1-1.187.277A3.018,3.018,0,0,1,6,14.555a2.884,2.884,0,0,1,.884-2.137,3,3,0,0,1,3.285-.633,3.185,3.185,0,0,1,1,.686l8-4.591a1.839,1.839,0,0,1-.119-.422,2.734,2.734,0,0,1-.04-.449,2.884,2.884,0,0,1,.884-2.137,3,3,0,0,1,5.132,2.137,2.919,2.919,0,0,1-.871,2.124,2.884,2.884,0,0,1-2.137.884,3.54,3.54,0,0,1-1.174-.2,2.253,2.253,0,0,1-.963-.646l-8,4.433a4.876,4.876,0,0,1,.092.488,3.372,3.372,0,0,1,.04.462,2.154,2.154,0,0,1-.04.4q-.04.211-.092.422l8,4.539a3.14,3.14,0,0,1,.924-.594,3.08,3.08,0,0,1,1.214-.224,3.013,3.013,0,0,1,2.137,5.132A2.884,2.884,0,0,1,22.017,25.11Zm0-16.677a1.4,1.4,0,0,0,1.425-1.425,1.425,1.425,0,1,0-2.85,0,1.4,1.4,0,0,0,1.425,1.425ZM9.008,15.98a1.4,1.4,0,1,0-1.016-.409,1.379,1.379,0,0,0,1.016.409Zm13.009,7.547A1.4,1.4,0,1,0,21,23.118,1.379,1.379,0,0,0,22.017,23.527ZM22.017,7.008ZM9.008,14.555ZM22.017,22.1Z" transform="translate(-6 -4)" fill="#d1372b"/>
</svg>
