<svg fill="#fff" version="1.1" id="Layer_1" xmlns="http://www.w3.org/2000/svg" xmlns:xlink="http://www.w3.org/1999/xlink" x="0px" y="0px"
	 viewBox="0 0 20 20" style="enable-background:new 0 0 20 20;" xml:space="preserve">
<g>
	<path d="M5.4,14.1c-1.1-1.1-1.7-2.5-1.7-4c0-1.5,0.6-3,1.7-4c1.1-1.1,2.6-1.7,4-1.7s2.9,0.6,4,1.7
		c1.7,1.7,2.1,4.3,1.1,6.5l1.1,1.1c1.6-2.7,1.2-6.3-1.2-8.6C11.7,2.2,7.1,2.2,4.3,5C3,6.3,2.2,8.1,2.2,10.1s0.7,3.7,2.1,5.1
		c1.4,1.4,3.3,2.1,5.1,2.1c1.4,0,2.8-0.4,4-1.2L12.3,15C10.1,16.2,7.2,16,5.4,14.1z"/>
	<path  d="M13.1,12.4c1-1.7,0.9-3.9-0.6-5.4C10.8,5.3,8,5.3,6.4,7c-0.8,0.8-1.3,1.9-1.3,3.1c0,1.2,0.4,2.2,1.3,3.1
		c0.8,0.8,1.9,1.3,3.1,1.3c1,0,1.9-0.3,2.7-1l4.8,4.8l1-1L13.1,12.4z M7.4,12.1c-0.5-0.5-0.8-1.2-0.8-2c0-0.8,0.3-1.5,0.8-2
		c0.6-0.6,1.3-0.8,2-0.8s1.4,0.3,2,0.8c1.1,1.1,1.1,2.9,0,4C10.3,13.1,8.5,13.1,7.4,12.1z"/>
</g>
</svg>
