<svg xmlns="http://www.w3.org/2000/svg" width="16" height="12.995" viewBox="0 0 16 12.995">
  <path id="Trazado_8048" data-name="Trazado 8048" d="M14.355-9.259A7.049,7.049,0,0,0,16-10.954a6.574,6.574,0,0,1-1.888.508,3.27,3.27,0,0,0,1.442-1.807,6.456,6.456,0,0,1-2.081.792,3.271,3.271,0,0,0-2.4-1.036A3.278,3.278,0,0,0,7.8-9.218a3.7,3.7,0,0,0,.081.751A9.321,9.321,0,0,1,1.117-11.9,3.254,3.254,0,0,0,.67-10.244,3.277,3.277,0,0,0,2.132-7.513,3.3,3.3,0,0,1,.65-7.929v.041A3.28,3.28,0,0,0,3.279-4.67a3.467,3.467,0,0,1-.863.112A4.133,4.133,0,0,1,1.8-4.609,3.285,3.285,0,0,0,4.863-2.335,6.567,6.567,0,0,1,.792-.934,6.786,6.786,0,0,1,0-.975,9.267,9.267,0,0,0,5.036.5a9.266,9.266,0,0,0,9.33-9.33C14.365-8.975,14.365-9.117,14.355-9.259Z" transform="translate(0 12.498)" fill="#fff"/>
</svg>
